<svg width="60" height="36" viewBox="0 0 60 36" fill="none" xmlns="http://www.w3.org/2000/svg">
<path d="M58.5142 9.40029L59.9822 1.25681C60.1045 0.602583 59.5802 0 58.9161 0H31.4787H11.0143C10.6298 0 10.2628 0.2066 10.0706 0.533716L0.144177 17.4749C-0.0480591 17.802 -0.0480591 18.2152 0.144177 18.5423L10.0706 35.4663C10.2628 35.7934 10.6298 36 11.0143 36H25.0476H31.4787H53.149C53.6733 36 54.1277 35.6212 54.2151 35.1047L55.6831 26.858C55.8054 26.2037 55.2811 25.6011 54.617 25.6011H42.0867C41.4051 25.6011 40.8983 24.9986 41.0207 24.3271L41.1954 23.3974C41.2828 22.8809 41.7372 22.5194 42.2615 22.5194H53.184C53.7083 22.5194 54.1627 22.1406 54.2675 21.6241L55.5083 14.6169C55.6306 13.9627 55.1064 13.3601 54.4248 13.3601H44.2712C43.5896 13.3601 43.0828 12.7575 43.1877 12.1033L43.345 11.1736C43.4324 10.6571 43.8867 10.2783 44.4285 10.2783H57.4132C57.9724 10.2956 58.4268 9.91679 58.5142 9.40029ZM13.4085 29.802L6.82003 18.5423C6.62779 18.2152 6.62779 17.802 6.82003 17.4749L13.4085 6.21521C13.6007 5.88809 13.9677 5.68149 14.3522 5.68149H27.5466C27.9311 5.68149 28.2981 5.88809 28.4903 6.21521L35.0788 17.4749C35.271 17.802 35.271 18.2152 35.0788 18.5423L28.4903 29.802C28.2981 30.1291 27.9311 30.3357 27.5466 30.3357H14.3522C13.9503 30.3357 13.6007 30.1291 13.4085 29.802Z" fill="url(#paint0_linear_132_342)"/>
<defs>
<linearGradient id="paint0_linear_132_342" x1="5.54536" y1="18.0054" x2="126.24" y2="18.0054" gradientUnits="userSpaceOnUse">
<stop stop-color="#B8005F"/>
<stop offset="1" stop-color="#00FFFF"/>
</linearGradient>
</defs>
</svg>
