<?xml version="1.0" encoding="utf-8"?><svg viewBox="0 0 30 29" xmlns="http://www.w3.org/2000/svg" xmlns:xlink="http://www.w3.org/1999/xlink"><style>:root>svg{display:none}:root>svg:target{display:block}</style><svg fill="none" viewBox="0 0 15 25" id="geo" xmlns="http://www.w3.org/2000/svg"><path d="M7.5 0C3.357 0 0 3.422 0 7.646 0 16.869 7.5 25 7.5 25S15 16.748 15 7.646C15 3.422 11.643 0 7.5 0zm0 11.772c-2.238 0-4.048-1.845-4.048-4.126 0-2.282 1.81-4.127 4.048-4.127s4.048 1.845 4.048 4.127c0 2.281-1.81 4.126-4.048 4.126z" fill="#fff"/></svg><svg fill="none" viewBox="0 0 30 29" id="inst" xmlns="http://www.w3.org/2000/svg"><path d="M22.326 0c.574.105 1.154.171 1.716.326 2.261.636 3.943 1.956 5.038 3.93.656 1.182.926 2.448.92 3.78-.006 4.106 0 8.212 0 12.318 0 1.796-.533 3.437-1.705 4.858-1.681 2.028-3.907 3.056-6.631 3.078-2.39.022-4.78.005-7.176.005H8.513c-2.947-.005-5.308-1.11-7.03-3.376C.47 23.587.007 22.073.007 20.437 0 16.226-.005 12.02.007 7.809.018 4.388 2.32 1.42 5.77.38 6.386.2 7.042.127 7.681 0h14.645zm-7.323 25.78c0 .006 0 .006 0 0 2.068.006 4.136.006 6.21.006.773 0 1.54-.033 2.279-.276 2.366-.774 3.83-2.719 3.842-5.145.012-4.134.006-8.268.006-12.401 0-.995-.21-1.946-.761-2.797-1.148-1.79-2.859-2.652-5.062-2.658-4.352-.006-8.705 0-13.057 0-.867 0-1.716.122-2.501.486C3.79 4.007 2.684 5.67 2.672 7.941c-.023 4.145-.006 8.29 0 12.43 0 .994.217 1.94.78 2.79 1.136 1.736 2.805 2.609 4.967 2.62 2.19.01 4.388 0 6.584 0z" fill="#fff"/><path d="M22.737 14.164c-.041 4.051-3.544 7.317-7.786 7.273-4.247-.044-7.703-3.343-7.674-7.328.03-4.007 3.533-7.295 7.745-7.256 4.317.038 7.691 3.3 7.715 7.311zm-7.762 4.758c2.806.017 5.09-2.122 5.09-4.769.006-2.63-2.25-4.758-5.06-4.775-2.76-.016-5.039 2.117-5.062 4.748-.024 2.62 2.238 4.78 5.032 4.796zM23.03 4.736c1.06-.028 1.944.792 1.98 1.84.029.976-.856 1.84-1.898 1.863-1.084.022-1.98-.787-2.01-1.813-.023-1.014.838-1.862 1.927-1.89z" fill="#fff"/></svg><svg fill="none" viewBox="0 0 20 20" id="phone" xmlns="http://www.w3.org/2000/svg"><path d="M0 3.921c.035-.163.064-.319.1-.482.113-.44.318-.837.637-1.156C1.32 1.7 1.893 1.12 2.481.545 2.971.07 3.538-.164 4.204.12c.234.1.461.248.638.425.88.858 1.744 1.724 2.602 2.596.383.39.631.844.546 1.411-.064.426-.312.752-.603 1.05-.489.49-.978.979-1.467 1.461-.255.255-.255.32-.114.645.56 1.249 1.411 2.284 2.326 3.277.914.986 1.914 1.872 3.056 2.589.39.24.808.44 1.212.66.184.099.326.02.46-.114.511-.51 1.007-1.029 1.532-1.525.206-.199.44-.383.695-.497.524-.24 1.028-.127 1.482.2.113.084.22.184.326.283.83.822 1.659 1.638 2.474 2.475.198.206.383.44.496.695.256.546.156 1.1-.24 1.532a44.844 44.844 0 01-1.993 2.035c-.376.362-.858.546-1.375.632-.064.007-.128.028-.185.042h-.822c-.05-.014-.092-.028-.142-.035-.617-.128-1.255-.206-1.85-.398-1.78-.56-3.39-1.475-4.9-2.546-2.743-1.943-4.94-4.39-6.607-7.312C1.121 8.602.61 7.446.276 6.22.156 5.78.092 5.325 0 4.872v-.95z" fill="#fff"/></svg></svg>